<svg width="24" height="24" viewBox="0 0 24 24" fill="currentColor" xmlns="http://www.w3.org/2000/svg">
<path d="M19 0C21.7614 0 24 2.23858 24 5V19C24 21.7614 21.7614 24 19 24H5L4.74316 23.9932C2.10111 23.8595 0 21.6753 0 19V5C0 2.32472 2.10111 0.140528 4.74316 0.00683594L5 0H19ZM5 2C3.34315 2 2 3.34315 2 5V19C2 20.6569 3.34315 22 5 22H19C20.6569 22 22 20.6569 22 19V5C22 3.34315 20.6569 2 19 2H5ZM15.75 6C16.0972 6 16.3927 6.10937 16.6357 6.32812C16.8787 6.54684 17 6.81258 17 7.125C17 7.43742 16.8787 7.70316 16.6357 7.92188C16.3927 8.14063 16.0972 8.25 15.75 8.25H10.9795L14.8125 11.4561C14.9931 11.6061 15.083 11.7875 15.083 12C15.083 12.2125 14.9931 12.3939 14.8125 12.5439L10.9795 15.75H15.75C16.0972 15.75 16.3927 15.8594 16.6357 16.0781C16.8787 16.2968 17 16.5626 17 16.875C17 17.1874 16.8787 17.4532 16.6357 17.6719C16.3927 17.8906 16.0972 18 15.75 18H7.60449C7.43783 18 7.29481 17.9471 7.17676 17.8408C7.05876 17.7346 7 17.606 7 17.4561V16.7441C7 16.6692 7.01423 16.5971 7.04199 16.5283C7.06977 16.4596 7.11806 16.3936 7.1875 16.3311L12.417 12L7.27051 7.72461C7.18735 7.64969 7.12178 7.56529 7.07324 7.47168C7.0247 7.37806 7.00006 7.28149 7 7.18164V6.75C7 6.53762 7.07972 6.35953 7.23926 6.21582C7.39891 6.07214 7.59704 6.00007 7.83301 6H15.75Z" fill="currentColor"/>
</svg>
