<svg width="53" height="58" viewBox="0 0 53 58" fill="none" xmlns="http://www.w3.org/2000/svg">
<rect y="4.56262" width="53" height="53" rx="26.5" fill="#111111"/>
<circle cx="36" cy="23.6127" r="5" fill="#FF55F9"/>
<path d="M10 34.6127C10 34.6127 10.9993 46.4356 17.8743 46.5294C24.5972 46.621 20.0164 35.5995 26.7329 35.3575C33.6547 35.1081 29.6625 46.8901 36.5757 46.5294C43.4356 46.1714 44.45 34.6127 44.45 34.6127" stroke="white" stroke-width="4.5" stroke-linecap="round"/>
<path d="M11.2676 27.0406C10.4979 27.0296 10.0287 26.1894 10.4231 25.5283L15.0837 17.7163C15.4781 17.0552 16.4402 17.0689 16.8156 17.741L21.2508 25.6832C21.6261 26.3553 21.1331 27.1817 20.3634 27.1707L11.2676 27.0406Z" fill="#3BFF76"/>
<ellipse cx="4.60767" cy="4.50135" rx="4.60767" ry="4.50135" transform="matrix(0.753425 -0.657534 0.647915 0.761713 11.925 6.05933)" fill="#FFF42D"/>
<ellipse cx="5.51141" cy="5.38423" rx="5.51141" ry="5.38423" transform="matrix(0.753425 -0.657534 0.647915 0.761713 18 7.86047)" fill="#FFF42D"/>
<ellipse cx="4.60767" cy="4.50135" rx="4.60767" ry="4.50135" transform="matrix(0.753425 -0.657534 0.647915 0.761713 26.974 6.05933)" fill="#FFF42D"/>
</svg>
