<svg width="45" height="45" viewBox="0 0 45 45" fill="none" xmlns="http://www.w3.org/2000/svg">
<path fill-rule="evenodd" clip-rule="evenodd" d="M38 0C41.866 0 45 3.13401 45 7V38C45 41.866 41.866 45 38 45H7C3.13401 45 1.36909e-07 41.866 0 38V7C0 3.13401 3.13401 1.36909e-07 7 0H38ZM19.2725 12.2725C15.4065 12.2725 12.2725 15.4065 12.2725 19.2725V25.7275C12.2725 29.5935 15.4065 32.7275 19.2725 32.7275H25.7275C29.1588 32.7275 32.0108 30.2582 32.6094 27H18V25H32.7275V20H18V18H32.6094C32.0108 14.7418 29.1588 12.2725 25.7275 12.2725H19.2725Z" fill="white"/>
</svg>
