<svg width="20" height="20" viewBox="0 0 20 20" fill="currentColor" xmlns="http://www.w3.org/2000/svg">
<path d="M2.58753 7.8535C2.34181 7.85527 2.12932 7.94578 1.95007 8.12503C1.77082 8.30429 1.68155 8.51553 1.68226 8.75878C1.68296 9.00202 1.77347 9.2138 1.95378 9.39411L2.80231 10.2426L1.95378 11.0912C1.77347 11.2715 1.6842 11.4845 1.68597 11.7302C1.68774 11.9759 1.77824 12.1884 1.9575 12.3677C2.13675 12.5469 2.348 12.6362 2.59124 12.6355C2.83449 12.6348 3.04626 12.5443 3.22658 12.364L4.0751 11.5154L4.92363 12.364C5.10394 12.5443 5.31696 12.6335 5.56268 12.6318C5.8084 12.63 6.02089 12.5395 6.20014 12.3602C6.37939 12.181 6.46866 11.9697 6.46796 11.7265C6.46725 11.4833 6.37674 11.2715 6.19643 11.0912L5.3479 10.2426L6.19643 9.39411C6.37674 9.2138 6.46601 9.00079 6.46424 8.75507C6.46247 8.50935 6.37197 8.29686 6.19271 8.11761C6.01346 7.93836 5.80221 7.84909 5.55897 7.84979C5.31572 7.8505 5.10394 7.94101 4.92363 8.12132L4.0751 8.96985L3.22658 8.12132C3.04627 7.94101 2.83325 7.85174 2.58753 7.8535Z" fill="currentColor"/>
<path d="M11.1749 16.2857L16.6035 16.2857L16.6035 3.71429L11.1749 3.71429L11.1749 16.2857ZM16.6035 2C17.0749 2 17.4785 2.16786 17.8142 2.50357C18.1499 2.83929 18.3177 3.24286 18.3177 3.71429L18.3177 16.2857C18.3177 16.7571 18.1499 17.1607 17.8142 17.4964C17.4785 17.8321 17.0749 18 16.6035 18L4.03203 18C3.5606 18 3.15703 17.8325 2.82132 17.4976C2.4856 17.1627 2.31774 16.7602 2.31774 16.29L2.31774 15.4348C2.31774 15.1925 2.39941 14.9881 2.56274 14.8214C2.72608 14.6548 2.92846 14.5714 3.16989 14.5714C3.41131 14.5714 3.61536 14.6536 3.78203 14.8179C3.9487 14.9821 4.03203 15.1857 4.03203 15.4286L4.03203 16.2857L9.4606 16.2857L9.4606 3.71429L4.03203 3.71429L4.03203 4.56643C4.03203 4.80786 3.95037 5.0119 3.78703 5.17857C3.6237 5.34524 3.42132 5.42857 3.17989 5.42857C2.93846 5.42857 2.73441 5.34619 2.56774 5.18143C2.40108 5.01667 2.31775 4.81246 2.31775 4.56881L2.31775 3.70929C2.31775 3.23643 2.4856 2.83333 2.82132 2.5C3.15703 2.16667 3.5606 2 4.03203 2L16.6035 2Z" fill="currentColor"/>
</svg>
