<svg width="20" height="20" viewBox="0 0 20 20" fill="currentColor" xmlns="http://www.w3.org/2000/svg">
<path d="M7.8535 17.4125C7.85527 17.6582 7.94578 17.8707 8.12503 18.0499C8.30429 18.2292 8.51553 18.3185 8.75878 18.3177C9.00202 18.317 9.2138 18.2265 9.39411 18.0462L10.2426 17.1977L11.0912 18.0462C11.2715 18.2265 11.4845 18.3158 11.7302 18.314C11.9759 18.3123 12.1884 18.2218 12.3677 18.0425C12.5469 17.8633 12.6362 17.652 12.6355 17.4088C12.6348 17.1655 12.5443 16.9537 12.364 16.7734L11.5154 15.9249L12.364 15.0764C12.5443 14.8961 12.6335 14.683 12.6318 14.4373C12.63 14.1916 12.5395 13.9791 12.3602 13.7999C12.181 13.6206 11.9698 13.5313 11.7265 13.532C11.4833 13.5328 11.2715 13.6233 11.0912 13.8036L10.2426 14.6521L9.39411 13.8036C9.2138 13.6233 9.00079 13.534 8.75507 13.5358C8.50935 13.5375 8.29686 13.628 8.11761 13.8073C7.93836 13.9865 7.84909 14.1978 7.84979 14.441C7.8505 14.6843 7.94101 14.8961 8.12132 15.0764L8.96985 15.9249L8.12132 16.7734C7.94101 16.9537 7.85174 17.1668 7.8535 17.4125Z" fill="currentColor"/>
<path d="M16.2857 8.82511V3.39654L3.71429 3.39654V8.82511L16.2857 8.82511ZM2 3.39654C2 2.92511 2.16786 2.52154 2.50357 2.18582C2.83929 1.85011 3.24286 1.68225 3.71429 1.68225L16.2857 1.68225C16.7571 1.68225 17.1607 1.85011 17.4964 2.18582C17.8321 2.52154 18 2.92511 18 3.39654V15.968C18 16.4394 17.8325 16.843 17.4976 17.1787C17.1627 17.5144 16.7602 17.6823 16.29 17.6823H15.4348C15.1925 17.6823 14.9881 17.6006 14.8214 17.4373C14.6548 17.2739 14.5714 17.0715 14.5714 16.8301C14.5714 16.5887 14.6536 16.3846 14.8179 16.218C14.9821 16.0513 15.1857 15.968 15.4286 15.968H16.2857V10.5394L3.71429 10.5394V15.968H4.56643C4.80786 15.968 5.01191 16.0496 5.17857 16.213C5.34524 16.3763 5.42857 16.5787 5.42857 16.8201C5.42857 17.0615 5.34619 17.2656 5.18143 17.4323C5.01667 17.5989 4.81246 17.6823 4.56881 17.6823H3.70929C3.23643 17.6823 2.83333 17.5144 2.5 17.1787C2.16667 16.843 2 16.4394 2 15.968V3.39654Z" fill="currentColor"/>
</svg>
