<svg width="25" height="24" viewBox="0 0 25 24" fill="currentColor" xmlns="http://www.w3.org/2000/svg">
<path d="M21.3184 18.4385L22.3176 18.4781C22.3181 18.4646 22.3184 18.451 22.3184 18.4375L21.3184 18.4385ZM21.3055 5.64372L22.3055 5.64272L22.3055 5.64272L21.3055 5.64372ZM18.7365 3.08733L18.7365 4.08733L18.7365 4.08733L18.7365 3.08733ZM5.89128 3.08733L5.89097 4.08733H5.89128V3.08733ZM3.32866 5.45436L2.3315 5.37907C2.3306 5.39095 2.32992 5.40285 2.32944 5.41476L3.32866 5.45436ZM3.32095 5.64884L2.32174 5.60924C2.3212 5.62277 2.32094 5.63631 2.32095 5.64984L3.32095 5.64884ZM3.3338 18.4436L2.3338 18.4446L3.3338 18.4436ZM5.90284 21L5.90284 20L5.90284 20L5.90284 21ZM18.7481 21L18.7484 20H18.7481V21ZM21.3107 18.633L22.3078 18.7083C22.3087 18.6964 22.3094 18.6845 22.3099 18.6726L21.3107 18.633ZM9.47574 8.20524C9.47574 7.65295 9.02802 7.20524 8.47574 7.20524C7.92345 7.20524 7.47574 7.65295 7.47574 8.20524H8.47574H9.47574ZM7.47574 20.7659C7.47574 21.3181 7.92345 21.7659 8.47574 21.7659C9.02802 21.7659 9.47574 21.3181 9.47574 20.7659H8.47574H7.47574ZM21.321 9.20524C21.8732 9.20524 22.321 8.75752 22.321 8.20524C22.321 7.65295 21.8732 7.20524 21.321 7.20524V8.20524V9.20524ZM3.33765 7.20524C2.78537 7.20524 2.33765 7.65295 2.33765 8.20524C2.33765 8.75752 2.78537 9.20524 3.33765 9.20524V8.20524V7.20524ZM21.3055 5.64372L22.3055 5.64272C22.3046 4.69817 21.9272 3.79343 21.2575 3.12707L20.5522 3.83592L19.8468 4.54477C20.1406 4.8371 20.3051 5.23281 20.3055 5.64473L21.3055 5.64372ZM20.5522 3.83592L21.2575 3.12707C20.588 2.46085 19.6812 2.08733 18.7365 2.08733L18.7365 3.08733L18.7365 4.08733C19.1536 4.08733 19.5529 4.25231 19.8468 4.54477L20.5522 3.83592ZM18.7365 3.08733V2.08733H5.89128V3.08733V4.08733H18.7365V3.08733ZM5.89128 3.08733L5.8916 2.08733C4.99236 2.08705 4.12556 2.4253 3.46511 3.03534L4.14363 3.76993L4.82215 4.50451C5.11219 4.2366 5.49393 4.0872 5.89097 4.08733L5.89128 3.08733ZM4.14363 3.76993L3.46511 3.03534C2.80455 3.64549 2.39919 4.48256 2.3315 5.37907L3.32866 5.45436L4.32582 5.52965C4.35535 5.13861 4.53221 4.77231 4.82215 4.50451L4.14363 3.76993ZM3.32866 5.45436L2.32944 5.41476L2.32174 5.60924L3.32095 5.64884L4.32017 5.68844L4.32788 5.49396L3.32866 5.45436ZM3.32095 5.64884L2.32095 5.64984L2.3338 18.4446L3.3338 18.4436L4.3338 18.4426L4.32095 5.64784L3.32095 5.64884ZM3.3338 18.4436L2.3338 18.4446C2.33475 19.3892 2.71215 20.2939 3.3818 20.9603L4.08716 20.2514L4.79252 19.5426C4.49875 19.2502 4.33421 18.8545 4.3338 18.4426L3.3338 18.4436ZM4.08716 20.2514L3.3818 20.9603C4.05132 21.6265 4.95816 22 5.90284 22L5.90284 21L5.90284 20C5.48571 20 5.08643 19.835 4.79252 19.5426L4.08716 20.2514ZM5.90284 21V22H18.7481V21V20H5.90284V21ZM18.7481 21L18.7477 22C19.647 22.0003 20.5138 21.662 21.1742 21.052L20.4957 20.3174L19.8172 19.5828C19.5271 19.8507 19.1454 20.0001 18.7484 20L18.7481 21ZM20.4957 20.3174L21.1742 21.052C21.8348 20.4418 22.2401 19.6048 22.3078 18.7083L21.3107 18.633L20.3135 18.5577C20.284 18.9487 20.1071 19.315 19.8172 19.5828L20.4957 20.3174ZM21.3107 18.633L22.3099 18.6726L22.3176 18.4781L21.3184 18.4385L20.3192 18.3989L20.3115 18.5934L21.3107 18.633ZM8.47574 8.20524H7.47574V20.7659H8.47574H9.47574V8.20524H8.47574ZM21.3184 18.4385L22.3184 18.4375L22.3081 8.20423L21.3081 8.20524L20.3081 8.20624L20.3184 18.4395L21.3184 18.4385ZM21.3081 8.20524L22.3081 8.20423L22.3055 5.64272L21.3055 5.64372L20.3055 5.64473L20.3081 8.20624L21.3081 8.20524ZM21.321 8.20524V7.20524H21.3081V8.20524V9.20524H21.321V8.20524ZM21.3081 8.20524V7.20524H3.33765V8.20524V9.20524H21.3081V8.20524ZM7.65813 3L6.7644 2.55138L4.06691 7.92518L4.96063 8.3738L5.85435 8.82242L8.55185 3.44862L7.65813 3ZM11.7044 3L10.8106 2.55138L8.11315 7.92518L9.00687 8.3738L9.90059 8.82242L12.5981 3.44862L11.7044 3ZM15.7506 3L14.8569 2.55138L12.1594 7.92518L13.0531 8.3738L13.9468 8.82242L16.6443 3.44862L15.7506 3ZM19.7969 3L18.9031 2.55138L16.2056 7.92518L17.0994 8.3738L17.9931 8.82242L20.6906 3.44862L19.7969 3Z" fill="currentColor"/>
</svg>
