<svg width="24" height="24" viewBox="0 0 24 24" fill="currentColor" xmlns="http://www.w3.org/2000/svg">
<path d="M20.9974 18.426L21.9967 18.4654C21.9972 18.4519 21.9974 18.4385 21.9974 18.425L20.9974 18.426ZM20.9846 5.56886L21.9846 5.56786L21.9846 5.56786L20.9846 5.56886ZM18.4155 3L18.4155 4L18.4155 4L18.4155 3ZM5.57033 3L5.57001 4H5.57033V3ZM3.00771 5.37857L2.01052 5.30364C2.00963 5.31547 2.00895 5.32731 2.00848 5.33916L3.00771 5.37857ZM3 5.574L2.00078 5.53459C2.00025 5.54806 1.99999 5.56153 2 5.575L3 5.574ZM3.01285 18.4311L2.01285 18.4321L3.01285 18.4311ZM5.58189 21L5.58189 20L5.58189 20L5.58189 21ZM18.4271 21L18.4274 20H18.4271V21ZM20.9897 18.6214L21.9869 18.6964C21.9878 18.6845 21.9885 18.6727 21.9889 18.6608L20.9897 18.6214ZM9.84937 3C9.84937 2.44772 9.40166 2 8.84937 2C8.29709 2 7.84937 2.44772 7.84937 3H8.84937H9.84937ZM7.84937 20.7647C7.84937 21.317 8.29709 21.7647 8.84937 21.7647C9.40166 21.7647 9.84937 21.317 9.84937 20.7647H8.84937H7.84937ZM21 9.14286C21.5523 9.14286 22 8.69514 22 8.14286C22 7.59057 21.5523 7.14286 21 7.14286V8.14286V9.14286ZM9.06936 7.14286C8.51708 7.14286 8.06936 7.59057 8.06936 8.14286C8.06936 8.69514 8.51708 9.14286 9.06936 9.14286V8.14286V7.14286ZM20.9846 5.56886L21.9846 5.56786C21.9836 4.62157 21.6074 3.71418 20.9383 3.04511L20.2312 3.75224L19.5241 4.45938C19.8185 4.75367 19.9842 5.15306 19.9846 5.56986L20.9846 5.56886ZM20.2312 3.75224L20.9383 3.04511C20.2692 2.37601 19.3618 2 18.4155 2L18.4155 3L18.4155 4C18.8311 4 19.2299 4.16512 19.5241 4.45938L20.2312 3.75224ZM18.4155 3V2H5.57033V3V4H18.4155V3ZM5.57033 3L5.57064 2C4.66994 1.99971 3.80257 2.34021 3.14238 2.95299L3.82267 3.68592L4.50297 4.41886C4.79328 4.1494 5.17444 3.99987 5.57001 4L5.57033 3ZM3.82267 3.68592L3.14238 2.95299C2.48221 3.56574 2.07801 4.40542 2.01052 5.30364L3.00771 5.37857L4.0049 5.4535C4.03462 5.05789 4.21264 4.68834 4.50297 4.41886L3.82267 3.68592ZM3.00771 5.37857L2.00848 5.33916L2.00078 5.53459L3 5.574L3.99922 5.61341L4.00693 5.41798L3.00771 5.37857ZM3 5.574L2 5.575L2.01285 18.4321L3.01285 18.4311L4.01284 18.4301L4 5.573L3 5.574ZM3.01285 18.4311L2.01285 18.4321C2.01379 19.3784 2.39001 20.2858 3.05913 20.9549L3.76621 20.2478L4.47329 19.5406C4.17898 19.2463 4.01326 18.8469 4.01284 18.4301L3.01285 18.4311ZM3.76621 20.2478L3.05913 20.9549C3.72828 21.624 4.63564 22 5.58189 22L5.58189 21L5.58189 20C5.16632 20 4.76757 19.8349 4.47329 19.5406L3.76621 20.2478ZM5.58189 21V22H18.4271V21V20H5.58189V21ZM18.4271 21L18.4268 22C19.3275 22.0003 20.1949 21.6598 20.8551 21.047L20.1748 20.3141L19.4945 19.5811C19.2041 19.8506 18.823 20.0001 18.4274 20L18.4271 21ZM20.1748 20.3141L20.8551 21.047C21.5152 20.4343 21.9194 19.5946 21.9869 18.6964L20.9897 18.6214L19.9925 18.5465C19.9628 18.9421 19.7848 19.3117 19.4945 19.5811L20.1748 20.3141ZM20.9897 18.6214L21.9889 18.6608L21.9967 18.4654L20.9974 18.426L19.9982 18.3866L19.9905 18.582L20.9897 18.6214ZM8.84937 3H7.84937V20.7647H8.84937H9.84937V3H8.84937ZM20.9974 18.426L21.9974 18.425L21.9872 8.14186L20.9872 8.14286L19.9872 8.14386L19.9974 18.427L20.9974 18.426ZM20.9872 8.14286L21.9872 8.14186L21.9846 5.56786L20.9846 5.56886L19.9846 5.56986L19.9872 8.14386L20.9872 8.14286ZM21 8.14286V7.14286H20.9872V8.14286V9.14286H21V8.14286ZM20.9872 8.14286V7.14286H9.06936V8.14286V9.14286H20.9872V8.14286ZM8.84675 3.67204L8.29886 2.83548L2.45404 6.66345L3.00192 7.5L3.54981 8.33655L9.39464 4.50859L8.84675 3.67204ZM8.84675 7.72204L8.2986 6.88566L2.45782 10.7136L3.00597 11.55L3.55412 12.3864L9.3949 8.55842L8.84675 7.72204ZM8.84675 11.772L8.29833 10.9358L2.4616 14.7638L3.01002 15.6L3.55843 16.4362L9.39517 12.6082L8.84675 11.772ZM8.84675 15.822L8.28815 14.9926L2.89316 18.626L3.45176 19.4554L4.01036 20.2849L9.40535 16.6515L8.84675 15.822Z" fill="currentColor"/>
</svg>
